<svg width="320" height="188" viewBox="0 0 320 188" fill="none" xmlns="http://www.w3.org/2000/svg">
<g clip-path="url(#clip0_2_828)">
<path d="M27.2955 40.151C25.9253 40.151 24.6295 40.151 23.3338 40.0766C23.2593 36.951 23.2594 33.2213 23.2594 28.3447C23.2594 23.849 23.2594 19.432 23.4126 15.1639C24.7083 15.1639 26.0785 15.0895 27.3743 15.0895C32.2509 15.0895 34.3083 16.5384 34.3083 27.4298C34.3083 38.3212 32.2509 40.151 27.2998 40.151H27.2955ZM0.0976562 0C0.250871 7.77018 0.32529 16.5341 0.32529 28.6468C0.32529 40.7595 0.250871 49.0637 0.0976562 57.1404H30.0402C50.3039 57.1404 57.6189 51.3488 57.6189 26.2829C57.6189 4.49576 49.1614 0 30.3466 0H0.0976562Z" fill="#181818"/>
<path d="M60.8477 0C61.0753 7.84897 61.1541 16.4553 61.1541 28.5724C61.1541 40.6895 61.0797 49.1425 60.8477 57.1447H107.473C107.399 54.8596 107.399 51.432 107.399 48.6129C107.399 45.5661 107.399 41.9852 107.473 39.7746C100.158 39.849 91.2455 39.9278 84.3902 39.9278V34.0618C92.086 34.0618 100.39 34.215 106.79 34.3683C106.716 30.8618 106.79 24.081 106.865 20.881C100.311 21.1086 92.1604 21.1874 84.3902 21.1874V15.5491C91.0178 15.5491 99.4753 15.5491 107.473 15.7023C107.399 13.7981 107.32 10.3705 107.32 7.62572C107.32 5.0342 107.394 1.8342 107.473 0.00875513H60.8477V0Z" fill="#181818"/>
<path d="M136.082 57.1404C135.928 48.9105 135.928 40.6063 135.928 28.4936C135.928 16.3808 135.928 8.07661 136.082 0H111.777C112.005 8.07661 112.005 16.4553 112.005 28.5724C112.005 40.6895 112.005 48.9893 111.777 57.1447H136.082V57.1404Z" fill="#181818"/>
<path d="M177.703 0C177.93 4.26813 178.158 11.4298 178.237 18.1319C178.311 21.2575 178.464 24.9871 178.771 29.1021H178.543C177.628 25.6744 176.565 22.3956 175.422 19.5021C172.375 12.4936 167.652 3.2 166.663 0H141.062C141.29 7.84897 141.216 16.4553 141.216 28.5724C141.216 40.6895 141.141 49.3702 141.062 57.1447H161.633C161.479 54.7808 161.479 49.3746 161.331 41.4512C161.177 36.9554 161.024 32.6917 160.643 27.8895L160.871 27.815C161.939 31.7767 163.23 35.664 164.907 39.5469C168.26 45.6405 171.994 52.5001 173.899 57.1447H197.748C197.594 49.9086 197.594 41.2235 197.594 28.4979C197.594 15.7724 197.669 4.9554 197.901 0.00437756H177.711L177.703 0Z" fill="#181818"/>
<path d="M0.0976562 64.696C0.32529 72.545 0.404086 81.1513 0.404086 93.2684C0.404086 105.386 0.329667 113.839 0.0976562 121.841H46.7231C46.6487 119.556 46.6487 116.128 46.6487 113.309C46.6487 110.262 46.6487 106.681 46.7231 104.471C39.4082 104.545 30.4955 104.624 23.6402 104.624V98.7579C31.336 98.7579 39.6402 98.9111 46.0402 99.0643C45.9658 95.5579 46.0402 88.777 46.1146 85.577C39.5614 85.8047 31.4104 85.8835 23.6402 85.8835V80.2452C30.2678 80.2452 38.7253 80.2452 46.7231 80.3984C46.6487 78.4941 46.5699 75.0665 46.5699 72.3218C46.5699 69.7303 46.6443 66.5302 46.7231 64.7048H0.0976562V64.696Z" fill="#181818"/>
<path d="M79.1374 91.8194C77.0056 91.8194 75.1757 91.8194 73.6524 91.745C73.5779 87.4025 73.5779 82.8323 73.5779 78.3365C75.4822 78.2621 77.4652 78.1833 78.4545 78.2621C82.4162 78.1877 84.2461 79.4791 84.2461 84.9686C84.2461 89.9196 82.7227 91.8238 79.1418 91.8238L79.1374 91.8194ZM93.1544 97.913C103.061 96.6172 106.791 92.2747 106.791 81.3789C106.791 69.0386 98.9415 64.696 84.9246 64.696H51.1035C51.3311 72.9259 51.4099 81.1513 51.4099 93.2684C51.4099 105.386 51.1823 113.611 51.1035 121.841H74.7205C74.2652 117.345 73.9588 111.024 73.8056 103.783C75.4034 103.709 76.3971 103.709 77.9205 103.709C81.6545 103.709 82.4162 105.692 83.5588 115.747C84.2461 120.624 85.1566 121.841 88.5098 121.841H108.397C107.789 119.096 107.027 113.917 106.34 110.183C104.891 102.032 101.463 99.594 93.1588 98.4514V97.9174L93.1544 97.913Z" fill="#181818"/>
<path d="M134.497 109.417C130.456 109.417 129.165 107.968 129.165 104.615C129.165 104.16 129.165 103.626 129.239 103.092C127.716 103.166 125.658 103.245 123.373 103.245C118.65 103.245 113.62 102.864 110.118 102.636C109.965 104.234 109.89 105.758 109.89 107.207C109.89 118.256 115.529 122.9 136.326 122.9C155.982 122.9 162.609 117.187 162.609 105.149C162.609 93.1108 157.96 88.9215 142.954 86.5576C133.814 85.1086 132.671 83.2044 132.671 80.3108C132.671 78.2534 133.967 77.0364 137.395 77.0364C141.812 77.0364 142.958 78.5598 142.958 81.3045C142.958 81.6854 142.958 82.2194 142.884 82.8279C144.407 82.7535 146.771 82.6747 149.358 82.6747C153.473 82.6747 158.652 82.9023 161.624 83.2088C161.699 81.8386 161.778 80.5428 161.778 79.3215C161.778 68.6534 156.599 63.6279 135.876 63.6279C117.512 63.6279 109.82 69.113 109.82 81.379C109.82 91.5874 113.095 97.3002 129.931 99.5896C138.161 100.732 139.605 102.562 139.605 105.762C139.605 108.126 138.388 109.422 134.501 109.422L134.497 109.417Z" fill="#181818"/>
<path d="M163.398 64.696C163.473 67.362 163.473 71.5513 163.473 75.2854C163.473 79.0194 163.473 83.4364 163.398 86.3344C166.905 86.2599 170.407 86.1811 173.76 86.1811C173.686 102.715 173.532 118.181 173.379 121.911C176.886 121.683 182.292 121.683 186.254 121.683C190.215 121.683 195.779 121.683 199.128 121.911C198.975 118.177 198.9 102.711 198.826 86.1811C202.179 86.2556 205.607 86.2556 209.109 86.3344C208.956 83.4408 208.956 78.945 208.956 75.2854C208.956 71.6257 208.956 67.362 209.109 64.696H163.398Z" fill="#181818"/>
<path d="M211.703 64.696C211.931 72.545 212.005 81.1513 212.005 93.2684C212.005 105.386 211.931 113.839 211.703 121.841H258.329C258.254 119.556 258.254 116.128 258.254 113.309C258.254 110.262 258.254 106.681 258.329 104.471C251.014 104.545 242.101 104.624 235.246 104.624V98.7579C242.941 98.7579 251.246 98.9111 257.646 99.0643C257.571 95.5579 257.646 88.777 257.72 85.577C251.167 85.8047 243.016 85.8835 235.246 85.8835V80.2452C241.873 80.2452 250.331 80.2452 258.329 80.3984C258.254 78.4941 258.175 75.0665 258.175 72.3218C258.175 69.7303 258.25 66.5302 258.329 64.7048H211.703V64.696Z" fill="#181818"/>
<path d="M290.745 91.8194C288.613 91.8194 286.783 91.8194 285.26 91.745C285.185 87.4025 285.185 82.8323 285.185 78.3365C287.09 78.2621 289.073 78.1833 290.062 78.2621C294.024 78.1877 295.853 79.4791 295.853 84.9686C295.853 89.9196 294.33 91.8238 290.749 91.8238L290.745 91.8194ZM304.766 97.913C314.673 96.6172 318.402 92.2747 318.402 81.3789C318.402 69.0386 310.553 64.696 296.536 64.696H262.711C262.939 72.9259 263.017 81.1513 263.017 93.2684C263.017 105.386 262.79 113.611 262.711 121.841H286.328C285.873 117.345 285.566 111.024 285.413 103.783C287.011 103.709 288.005 103.709 289.528 103.709C293.262 103.709 294.024 105.692 295.166 115.747C295.853 120.624 296.764 121.841 300.117 121.841H320C319.392 119.096 318.63 113.917 317.943 110.183C316.494 102.032 313.066 99.594 304.762 98.4514V97.9174L304.766 97.913Z" fill="#181818"/>
<path d="M0 129.392C0.0744186 132.058 0.0744186 136.247 0.0744186 139.981C0.0744186 143.715 0.0744186 148.132 0 151.03C3.50643 150.956 7.00848 150.877 10.3617 150.877C10.2873 167.411 10.1341 182.877 9.98085 186.607C13.4873 186.379 18.8936 186.379 22.8553 186.379C26.817 186.379 32.3765 186.379 35.7297 186.607C35.5765 182.873 35.502 167.407 35.4233 150.877C38.7765 150.952 42.2041 150.952 45.7105 151.03C45.5573 148.137 45.5573 143.641 45.5573 139.981C45.5573 136.322 45.5573 132.058 45.7105 129.392H0Z" fill="#181818"/>
<path d="M74.9312 163.296H70.5887C71.276 158.113 72.0377 152.781 72.8738 147.984C73.561 144.709 74.1695 141.05 74.6248 138.156H75.0056C75.4609 141.05 75.995 144.784 76.7567 147.909C77.5928 152.707 78.4333 158.118 79.1206 163.301H74.9312V163.296ZM107.386 186.532C103.578 172.056 96.644 137.009 95.195 129.392H55.9632C54.8207 136.856 48.0398 172.135 44.459 186.532H68.3036C68.378 184.247 68.61 180.592 69.0653 176.25H80.5695C80.9504 180.667 81.178 184.326 81.2568 186.532H107.391H107.386Z" fill="#181818"/>
<path d="M141.942 150.343C144.835 150.19 148.797 150.19 152.991 150.19C157.184 150.19 161.676 150.264 165.182 150.343C165.257 149.047 165.335 147.905 165.335 146.688C165.335 134.956 158.935 128.403 137.069 128.403C115.204 128.403 106.746 135.337 106.746 157.203C106.746 179.069 116.04 187.526 136.837 187.526C161.978 187.526 166.32 178.307 165.103 154.082C159.54 154.309 154.054 154.235 149.865 154.235C146.21 154.235 141.254 154.235 136.378 154.082C136.452 155.605 136.452 157.662 136.452 159.873C136.452 161.243 136.452 164.977 136.378 166.347C138.51 166.273 140.874 166.273 143.233 166.194C142.699 170.764 141.101 172.441 137.52 172.441C132.11 172.441 130.512 168.326 130.512 157.509C130.512 146.005 132.263 142.424 136.912 142.424C140.34 142.424 141.942 144.101 141.942 148.062V150.347V150.343Z" fill="#181818"/>
</g>
<defs>
<clipPath id="clip0_2_828">
<rect width="320" height="187.526" fill="white"/>
</clipPath>
</defs>
</svg>
